<svg xmlns="http://www.w3.org/2000/svg" viewBox="0 0 24 24" fill="none" stroke="#22d3ee" stroke-width="2" stroke-linecap="round" stroke-linejoin="round">
  <defs>
    <linearGradient id="cyanGrad" x1="0%" y1="0%" x2="100%" y2="100%">
      <stop offset="0%" stop-color="#22d3ee" />
      <stop offset="100%" stop-color="#3b82f6" />
    </linearGradient>
  </defs>
  <path stroke="url(#cyanGrad)" d="M12 4C7.5 4 4 7 4 11c0 2.5 1.5 4.5 3 5.5l-.5 2.5 3.5-1.5c1 .5 2.5.5 4 .5 1.5 0 3 0 4-.5l3.5 1.5-.5-2.5c1.5-1 3-3 3-5.5 0-4-3.5-7-8-7z"/>
  <circle cx="12" cy="10" r="1.5" fill="#22d3ee" stroke="none"/>
  <circle cx="8" cy="13" r="1.5" fill="#22d3ee" stroke="none"/>
  <circle cx="16" cy="13" r="1.5" fill="#22d3ee" stroke="none"/>
  <path stroke="url(#cyanGrad)" d="M12 10l-4 3" stroke-width="1.5"/>
  <path stroke="url(#cyanGrad)" d="M12 10l4 3" stroke-width="1.5"/>
  <path stroke="url(#cyanGrad)" d="M8 13h8" stroke-width="1.5"/>
  <circle cx="12" cy="16" r="1.5" fill="#22d3ee" stroke="none"/>
  <path stroke="url(#cyanGrad)" d="M8 13l4 3" stroke-width="1.5"/>
  <path stroke="url(#cyanGrad)" d="M16 13l-4 3" stroke-width="1.5"/>
</svg>
